<?xml version="1.0" encoding="utf-8"?>
<!-- Generator: Adobe Illustrator 18.1.1, SVG Export Plug-In . SVG Version: 6.00 Build 0)  -->
<!DOCTYPE svg PUBLIC "-//W3C//DTD SVG 1.1//EN" "http://www.w3.org/Graphics/SVG/1.1/DTD/svg11.dtd">
<svg version="1.1" id="Layer_1" xmlns="http://www.w3.org/2000/svg" xmlns:xlink="http://www.w3.org/1999/xlink" x="0px" y="0px"
	 viewBox="0 0 80 112" enable-background="new 0 0 80 112" xml:space="preserve">
<g>
	<g>
		<path fill="#FFFFFF" d="M70,110H10c-4.4,0-8-3.6-8-8V10c0-4.4,3.6-8,8-8h48l20,20v80C78,106.4,74.4,110,70,110z"/>
		<path fill="#666666" d="M70,112H10c-5.5,0-10-4.5-10-10V10C0,4.5,4.5,0,10,0h48c0.5,0,1,0.2,1.4,0.6l20,20C79.8,21,80,21.5,80,22
			v80C80,107.5,75.5,112,70,112z M10,4c-3.3,0-6,2.7-6,6v92c0,3.3,2.7,6,6,6h60c3.3,0,6-2.7,6-6V22.8L57.2,4H10z"/>
	</g>
	<g>
		<path fill="#666666" d="M78,22L58,2v12c0,4.4,3.6,8,8,8H78z"/>
		<path fill="#666666" d="M78,24H66c-5.5,0-10-4.5-10-10V2c0-0.8,0.5-1.5,1.2-1.8C58-0.2,58.8,0,59.4,0.6l20,20
			c0.6,0.6,0.7,1.4,0.4,2.2C79.5,23.5,78.8,24,78,24z M60,6.8V14c0,3.3,2.7,6,6,6h7.2L60,6.8z"/>
	</g>
	<g>
		<path fill="#666666" d="M34,98.3c0-0.7,0.2-1.2,0.5-1.5s0.9-0.5,1.5-0.5c0.6,0,1.2,0.2,1.5,0.5s0.5,0.8,0.5,1.5
			c0,0.6-0.2,1.1-0.5,1.5s-0.9,0.5-1.5,0.5c-0.7,0-1.2-0.2-1.5-0.5S34,99,34,98.3z"/>
		<path fill="#666666" d="M45.3,97.4c0.6,0,1.4-0.1,2.2-0.4v2.7c-0.9,0.4-2,0.6-3.3,0.6c-1.4,0-2.5-0.4-3.1-1.1s-1-1.8-1-3.3v-6.3
			h-1.7v-1.5l2-1.2l1-2.8h2.3v2.8h3.7v2.7h-3.7v6.3c0,0.5,0.1,0.9,0.4,1.1S44.8,97.4,45.3,97.4z"/>
		<path fill="#666666" d="M52.2,93.3L48,86.9H52l2.5,4.2l2.6-4.2h4.1l-4.3,6.4l4.5,6.7h-4.1l-2.8-4.5l-2.8,4.5h-4.1L52.2,93.3z"/>
		<path fill="#666666" d="M68,97.4c0.6,0,1.4-0.1,2.2-0.4v2.7c-0.9,0.4-2,0.6-3.3,0.6c-1.4,0-2.5-0.4-3.1-1.1s-1-1.8-1-3.3v-6.3
			h-1.7v-1.5l2-1.2l1-2.8h2.3v2.8h3.7v2.7h-3.7v6.3c0,0.5,0.1,0.9,0.4,1.1S67.5,97.4,68,97.4z"/>
	</g>
	<path fill="#BBBBBB" d="M48,14H12c-1.1,0-2-0.9-2-2s0.9-2,2-2h36c1.1,0,2,0.9,2,2S49.1,14,48,14z"/>
	<path fill="#BBBBBB" d="M48,24H12c-1.1,0-2-0.9-2-2s0.9-2,2-2h36c1.1,0,2,0.9,2,2S49.1,24,48,24z"/>
	<path fill="#BBBBBB" d="M68,34H12c-1.1,0-2-0.9-2-2s0.9-2,2-2h56c1.1,0,2,0.9,2,2S69.1,34,68,34z"/>
	<path fill="#BBBBBB" d="M68,54H12c-1.1,0-2-0.9-2-2s0.9-2,2-2h56c1.1,0,2,0.9,2,2S69.1,54,68,54z"/>
	<path fill="#BBBBBB" d="M68,44H12c-1.1,0-2-0.9-2-2s0.9-2,2-2h56c1.1,0,2,0.9,2,2S69.1,44,68,44z"/>
	<path fill="#BBBBBB" d="M68,64H12c-1.1,0-2-0.9-2-2s0.9-2,2-2h56c1.1,0,2,0.9,2,2S69.1,64,68,64z"/>
	<path fill="#BBBBBB" d="M68,74H12c-1.1,0-2-0.9-2-2s0.9-2,2-2h56c1.1,0,2,0.9,2,2S69.1,74,68,74z"/>
	<path fill="#BBBBBB" d="M26,84H12c-1.1,0-2-0.9-2-2s0.9-2,2-2h14c1.1,0,2,0.9,2,2S27.1,84,26,84z"/>
	<path fill="#BBBBBB" d="M22,94H12c-1.1,0-2-0.9-2-2s0.9-2,2-2h10c1.1,0,2,0.9,2,2S23.1,94,22,94z"/>
</g>
</svg>
